<svg xmlns="http://www.w3.org/2000/svg" xmlns:xlink="http://www.w3.org/1999/xlink" width="500" zoomAndPan="magnify" viewBox="0 0 375 374.999991" height="500" preserveAspectRatio="xMidYMid meet" version="1.2"><defs><clipPath id="4b2ae684de"><path d="M 93.566406 199.6875 L 187.5 199.6875 L 187.5 227.066406 L 93.566406 227.066406 Z M 93.566406 199.6875 "/></clipPath><clipPath id="99b8ba499d"><path d="M 0.566406 0.6875 L 94.5 0.6875 L 94.5 28.066406 L 0.566406 28.066406 Z M 0.566406 0.6875 "/></clipPath><clipPath id="a51d5c7b47"><rect x="0" width="95" y="0" height="29"/></clipPath></defs><g id="55e262f8b5"><rect x="0" width="375" y="0" height="374.999991" style="fill:#ffffff;fill-opacity:1;stroke:none;"/><rect x="0" width="375" y="0" height="374.999991" style="fill:#ffffff;fill-opacity:1;stroke:none;"/><g style="fill:#000000;fill-opacity:1;"><g transform="translate(10.333179, 162.749989)"><path style="stroke:none" d="M 24.34375 -16.40625 C 12.039062 -29.90625 5.890625 -46.398438 5.890625 -65.890625 C 5.890625 -85.378906 12.039062 -101.832031 24.34375 -115.25 C 36.65625 -128.664062 52.300781 -135.375 71.28125 -135.375 C 88.707031 -135.375 103.0625 -129.132812 114.34375 -116.65625 L 114.859375 -116.65625 L 114.859375 -131.53125 L 159.734375 -131.53125 L 159.734375 66.65625 L 114.34375 66.65625 L 114.34375 -12.5625 C 103.0625 -1.625 88.707031 3.84375 71.28125 3.84375 C 52.300781 3.84375 36.65625 -2.90625 24.34375 -16.40625 Z M 62.546875 -88.0625 C 56.910156 -82.34375 54.09375 -74.953125 54.09375 -65.890625 C 54.09375 -56.828125 57.039062 -49.390625 62.9375 -43.578125 C 68.84375 -37.773438 76.148438 -34.875 84.859375 -34.875 C 93.410156 -34.875 100.632812 -37.773438 106.53125 -43.578125 C 112.425781 -49.390625 115.375 -56.828125 115.375 -65.890625 C 115.375 -74.773438 112.507812 -82.125 106.78125 -87.9375 C 101.0625 -93.75 93.753906 -96.65625 84.859375 -96.65625 C 75.628906 -96.65625 68.191406 -93.789062 62.546875 -88.0625 Z M 62.546875 -88.0625 "/></g></g><g style="fill:#000000;fill-opacity:1;"><g transform="translate(189.547842, 162.749989)"><path style="stroke:none" d="M 24.34375 -16.28125 C 12.039062 -29.695312 5.890625 -46.144531 5.890625 -65.625 C 5.890625 -85.113281 12.039062 -101.609375 24.34375 -115.109375 C 36.65625 -128.617188 52.300781 -135.375 71.28125 -135.375 C 88.707031 -135.375 103.0625 -129.90625 114.34375 -118.96875 L 114.34375 -131.53125 L 159.734375 -131.53125 L 159.734375 0 L 114.859375 0 L 114.859375 -14.875 L 114.34375 -14.875 C 103.0625 -2.394531 88.707031 3.84375 71.28125 3.84375 C 52.300781 3.84375 36.65625 -2.863281 24.34375 -16.28125 Z M 62.9375 -87.9375 C 57.039062 -82.125 54.09375 -74.6875 54.09375 -65.625 C 54.09375 -56.570312 56.910156 -49.179688 62.546875 -43.453125 C 68.191406 -37.734375 75.628906 -34.875 84.859375 -34.875 C 93.753906 -34.875 101.0625 -37.773438 106.78125 -43.578125 C 112.507812 -49.390625 115.375 -56.742188 115.375 -65.640625 C 115.375 -74.691406 112.425781 -82.125 106.53125 -87.9375 C 100.632812 -93.75 93.410156 -96.65625 84.859375 -96.65625 C 76.148438 -96.65625 68.84375 -93.75 62.9375 -87.9375 Z M 62.9375 -87.9375 "/></g></g><g style="fill:#000000;fill-opacity:1;"><g transform="translate(17.118335, 344.249977)"><path style="stroke:none" d="M 48.71875 -131.53125 L 80.765625 -60 L 112.8125 -131.53125 L 166.65625 -131.53125 L 96.140625 0 L 65.375 0 L -5.125 -131.53125 Z M 48.71875 -131.53125 "/></g></g><g style="fill:#000000;fill-opacity:1;"><g transform="translate(182.744477, 344.249977)"><path style="stroke:none" d="M 24.34375 -16.28125 C 12.039062 -29.695312 5.890625 -46.144531 5.890625 -65.625 C 5.890625 -85.113281 12.039062 -101.609375 24.34375 -115.109375 C 36.65625 -128.617188 52.300781 -135.375 71.28125 -135.375 C 88.707031 -135.375 103.0625 -129.90625 114.34375 -118.96875 L 114.34375 -131.53125 L 159.734375 -131.53125 L 159.734375 0 L 114.859375 0 L 114.859375 -14.875 L 114.34375 -14.875 C 103.0625 -2.394531 88.707031 3.84375 71.28125 3.84375 C 52.300781 3.84375 36.65625 -2.863281 24.34375 -16.28125 Z M 62.9375 -87.9375 C 57.039062 -82.125 54.09375 -74.6875 54.09375 -65.625 C 54.09375 -56.570312 56.910156 -49.179688 62.546875 -43.453125 C 68.191406 -37.734375 75.628906 -34.875 84.859375 -34.875 C 93.753906 -34.875 101.0625 -37.773438 106.78125 -43.578125 C 112.507812 -49.390625 115.375 -56.742188 115.375 -65.640625 C 115.375 -74.691406 112.425781 -82.125 106.53125 -87.9375 C 100.632812 -93.75 93.410156 -96.65625 84.859375 -96.65625 C 76.148438 -96.65625 68.84375 -93.75 62.9375 -87.9375 Z M 62.9375 -87.9375 "/></g></g><g clip-rule="nonzero" clip-path="url(#4b2ae684de)"><g transform="matrix(1,0,0,1,93,199)"><g clip-path="url(#a51d5c7b47)"><g clip-rule="nonzero" clip-path="url(#99b8ba499d)"><path style=" stroke:none;fill-rule:nonzero;fill:#ffffff;fill-opacity:1;" d="M 0.566406 0.6875 L 94.46875 0.6875 L 94.46875 28.066406 L 0.566406 28.066406 Z M 0.566406 0.6875 "/></g></g></g></g></g></svg>