<svg xmlns="http://www.w3.org/2000/svg" xmlns:xlink="http://www.w3.org/1999/xlink" width="500" zoomAndPan="magnify" viewBox="0 0 375 374.999991" height="500" preserveAspectRatio="xMidYMid meet" version="1.0"><defs><g/><clipPath id="5638f4c031"><path d="M 187.5 0 C 83.945312 0 0 83.945312 0 187.5 C 0 291.054688 83.945312 375 187.5 375 C 291.054688 375 375 291.054688 375 187.5 C 375 83.945312 291.054688 0 187.5 0 Z M 187.5 0 " clip-rule="nonzero"/></clipPath></defs><rect x="-37.5" width="450" fill="#ffffff" y="-37.499999" height="449.999989" fill-opacity="1"/><rect x="-37.5" width="450" fill="#ffffff" y="-37.499999" height="449.999989" fill-opacity="1"/><g clip-path="url(#5638f4c031)"><rect x="-37.5" width="450" fill="#000000" y="-37.499999" height="449.999989" fill-opacity="1"/></g><g fill="#ffffff" fill-opacity="1"><g transform="translate(74.986927, 292.645938)"><g><path d="M 11.984375 -33.0625 L 11.984375 -77.703125 L 97.140625 -211.640625 L 137.640625 -211.640625 L 137.640625 -152.109375 L 114.5 -152.109375 L 68.609375 -79.359375 L 68.609375 -77.703125 L 194.28125 -77.703125 L 194.28125 -33.0625 Z M 114.90625 0 L 114.90625 -46.703125 L 116.15625 -66.140625 L 116.15625 -211.640625 L 169.890625 -211.640625 L 169.890625 0 Z M 114.90625 0 "/></g></g></g></svg>