<svg xmlns="http://www.w3.org/2000/svg" xmlns:xlink="http://www.w3.org/1999/xlink" width="500" zoomAndPan="magnify" viewBox="0 0 375 374.999991" height="500" preserveAspectRatio="xMidYMid meet" version="1.0"><defs><g/><clipPath id="56bcacc098"><path d="M 187.5 0 C 83.945312 0 0 83.945312 0 187.5 C 0 291.054688 83.945312 375 187.5 375 C 291.054688 375 375 291.054688 375 187.5 C 375 83.945312 291.054688 0 187.5 0 Z M 187.5 0 " clip-rule="nonzero"/></clipPath></defs><rect x="-37.5" width="450" fill="#ffffff" y="-37.499999" height="449.999989" fill-opacity="1"/><rect x="-37.5" width="450" fill="#ffffff" y="-37.499999" height="449.999989" fill-opacity="1"/><g clip-path="url(#56bcacc098)"><rect x="-37.5" width="450" fill="#000000" y="-37.499999" height="449.999989" fill-opacity="1"/></g><g fill="#ffffff" fill-opacity="1"><g transform="translate(82.620652, 292.645938)"><g><path d="M 96.71875 2.890625 C 80.050781 2.890625 65.257812 0.015625 52.34375 -5.734375 C 39.425781 -11.484375 29.28125 -19.421875 21.90625 -29.546875 C 14.53125 -39.679688 10.8125 -51.328125 10.75 -64.484375 L 68.609375 -64.484375 C 68.679688 -60.421875 69.941406 -56.785156 72.390625 -53.578125 C 74.835938 -50.378906 78.195312 -47.882812 82.46875 -46.09375 C 86.738281 -44.300781 91.628906 -43.40625 97.140625 -43.40625 C 102.441406 -43.40625 107.125 -44.347656 111.1875 -46.234375 C 115.25 -48.128906 118.414062 -50.765625 120.6875 -54.140625 C 122.96875 -57.523438 124.070312 -61.382812 124 -65.71875 C 124.070312 -69.988281 122.78125 -73.773438 120.125 -77.078125 C 117.476562 -80.390625 113.773438 -82.972656 109.015625 -84.828125 C 104.265625 -86.691406 98.789062 -87.625 92.59375 -87.625 L 71.09375 -87.625 L 71.09375 -127.3125 L 92.59375 -127.3125 C 98.3125 -127.3125 103.359375 -128.238281 107.734375 -130.09375 C 112.109375 -131.957031 115.515625 -134.539062 117.953125 -137.84375 C 120.398438 -141.15625 121.59375 -144.945312 121.53125 -149.21875 C 121.59375 -153.351562 120.585938 -157.003906 118.515625 -160.171875 C 116.453125 -163.335938 113.578125 -165.816406 109.890625 -167.609375 C 106.210938 -169.398438 101.960938 -170.296875 97.140625 -170.296875 C 91.898438 -170.296875 87.226562 -169.363281 83.125 -167.5 C 79.03125 -165.644531 75.8125 -163.0625 73.46875 -159.75 C 71.125 -156.445312 69.921875 -152.660156 69.859375 -148.390625 L 14.875 -148.390625 C 14.945312 -161.347656 18.515625 -172.785156 25.578125 -182.703125 C 32.640625 -192.617188 42.332031 -200.398438 54.65625 -206.046875 C 66.988281 -211.703125 81.148438 -214.53125 97.140625 -214.53125 C 112.773438 -214.53125 126.601562 -211.875 138.625 -206.5625 C 150.644531 -201.257812 160.046875 -193.972656 166.828125 -184.703125 C 173.617188 -175.441406 176.984375 -164.851562 176.921875 -152.9375 C 177.054688 -141.09375 173.003906 -131.378906 164.765625 -123.796875 C 156.535156 -116.222656 146.117188 -111.742188 133.515625 -110.359375 L 133.515625 -108.71875 C 150.597656 -106.851562 163.441406 -101.628906 172.046875 -93.046875 C 180.660156 -84.472656 184.898438 -73.710938 184.765625 -60.765625 C 184.835938 -48.359375 181.132812 -37.367188 173.65625 -27.796875 C 166.1875 -18.222656 155.816406 -10.710938 142.546875 -5.265625 C 129.285156 0.171875 114.007812 2.890625 96.71875 2.890625 Z M 96.71875 2.890625 "/></g></g></g></svg>