<svg xmlns="http://www.w3.org/2000/svg" xmlns:xlink="http://www.w3.org/1999/xlink" width="500" zoomAndPan="magnify" viewBox="0 0 375 374.999991" height="500" preserveAspectRatio="xMidYMid meet" version="1.0"><defs><g/><clipPath id="7ab11e3a7c"><path d="M 187.5 0 C 83.945312 0 0 83.945312 0 187.5 C 0 291.054688 83.945312 375 187.5 375 C 291.054688 375 375 291.054688 375 187.5 C 375 83.945312 291.054688 0 187.5 0 Z M 187.5 0 " clip-rule="nonzero"/></clipPath></defs><rect x="-37.5" width="450" fill="#ffffff" y="-37.499999" height="449.999989" fill-opacity="1"/><rect x="-37.5" width="450" fill="#ffffff" y="-37.499999" height="449.999989" fill-opacity="1"/><g clip-path="url(#7ab11e3a7c)"><rect x="-37.5" width="450" fill="#000000" y="-37.499999" height="449.999989" fill-opacity="1"/></g><g fill="#ffffff" fill-opacity="1"><g transform="translate(86.788556, 292.645938)"><g><path d="M 14.046875 0 L 14.046875 -41.328125 L 93 -106.640625 C 98.238281 -110.984375 102.734375 -115.066406 106.484375 -118.890625 C 110.242188 -122.710938 113.140625 -126.65625 115.171875 -130.71875 C 117.203125 -134.78125 118.21875 -139.296875 118.21875 -144.265625 C 118.21875 -149.703125 117.0625 -154.347656 114.75 -158.203125 C 112.445312 -162.066406 109.257812 -165.046875 105.1875 -167.140625 C 101.125 -169.242188 96.441406 -170.296875 91.140625 -170.296875 C 85.835938 -170.296875 81.171875 -169.226562 77.140625 -167.09375 C 73.109375 -164.957031 69.988281 -161.820312 67.78125 -157.6875 C 65.582031 -153.5625 64.484375 -148.535156 64.484375 -142.609375 L 9.921875 -142.609375 C 9.921875 -157.484375 13.257812 -170.296875 19.9375 -181.046875 C 26.625 -191.796875 36.0625 -200.0625 48.25 -205.84375 C 60.445312 -211.632812 74.742188 -214.53125 91.140625 -214.53125 C 108.085938 -214.53125 122.78125 -211.828125 135.21875 -206.421875 C 147.65625 -201.015625 157.265625 -193.414062 164.046875 -183.625 C 170.835938 -173.84375 174.234375 -162.375 174.234375 -149.21875 C 174.234375 -141.09375 172.539062 -133.015625 169.15625 -124.984375 C 165.78125 -116.960938 159.71875 -108.09375 150.96875 -98.375 C 142.226562 -88.664062 129.796875 -77.09375 113.671875 -63.65625 L 93.828125 -47.125 L 93.828125 -45.875 L 176.5 -45.875 L 176.5 0 Z M 14.046875 0 "/></g></g></g></svg>